PathFileType	4	(X/Y/Z)	C:/Users/opensim2020/Desktop/walking_exp_matlab/subject02_walking09_straight_04.trc	
DataRate	CameraRate	NumFrames	NumMarkers	Units	OrigDataRate	OrigDataStartFrame	OrigNumFrames	
100.00	100.00	5	42	mm	100.00	3185	285	
Frame#	Time	LFHD			RFHD			LBHD			RBHD			C7			T10			CLAV			STRN			RBAK			LSHO			LUPA			LELB			LFRM			LWRA			LWRB			LFIN			RSHO			RUPA			RELB			RFRM			RWRA			RWRB			RFIN			LASI			RASI			LPSI			RPSI			LTHI			LKNE			LTIB			LANK			LHEE			LTOE			RTHI			RKNE			RTIB			RANK			RHEE			RTOE			*39			*40			*41			
		X1	Y1	Z1	X2	Y2	Z2	X3	Y3	Z3	X4	Y4	Z4	X5	Y5	Z5	X6	Y6	Z6	X7	Y7	Z7	X8	Y8	Z8	X9	Y9	Z9	X10	Y10	Z10	X11	Y11	Z11	X12	Y12	Z12	X13	Y13	Z13	X14	Y14	Z14	X15	Y15	Z15	X16	Y16	Z16	X17	Y17	Z17	X18	Y18	Z18	X19	Y19	Z19	X20	Y20	Z20	X21	Y21	Z21	X22	Y22	Z22	X23	Y23	Z23	X24	Y24	Z24	X25	Y25	Z25	X26	Y26	Z26	X27	Y27	Z27	X28	Y28	Z28	X29	Y29	Z29	X30	Y30	Z30	X31	Y31	Z31	X32	Y32	Z32	X33	Y33	Z33	X34	Y34	Z34	X35	Y35	Z35	X36	Y36	Z36	X37	Y37	Z37	X38	Y38	Z38	X39	Y39	Z39	X40	Y40	Z40	X41	Y41	Z41	X42	Y42	Z42	

179	1.780	1450.95874	-483.09778	1733.97620	1308.25256	-480.90402	1711.20972	1460.47241	-345.19531	1674.06714	1318.72717	-331.08563	1652.19006	1377.12610	-281.93042	1530.17896	1364.09912	-218.91524	1256.09619	1408.96716	-413.11841	1455.00586	1399.79114	-460.86801	1282.05383	1299.46082	-230.37367	1360.49219	1566.26050	-319.34006	1496.14319	1634.90735	-262.70068	1299.54333	1636.45654	-234.25520	1161.00757	1646.84302	-218.96243	1029.69116	1622.08521	-258.83185	896.34705	1645.64709	-208.12935	905.94598	1649.29370	-216.01456	839.30566	1208.04932	-391.44501	1499.06152	1112.08997	-411.12650	1311.58716	1093.88440	-461.22940	1171.99365	1084.92554	-525.73297	1069.26831	1116.14563	-603.48285	962.86542	1075.48889	-567.18176	946.22504	1080.14612	-622.89301	900.50873	1518.93860	-440.98590	994.79004	1261.22717	-450.30121	974.17310	1428.86719	-234.31226	1034.88916	1314.75952	-234.19365	1034.00012	1592.50964	-434.54871	693.41547	1568.68030	-463.25259	495.62119	1562.57813	-423.55399	305.55328	1543.21228	-452.51505	82.59058	1483.76147	-435.91031	52.34851	1591.70081	-598.69934	56.17075	1211.99194	-345.77914	668.39716	1261.01929	-317.72192	460.87558	1262.61890	-256.07156	281.85556	1309.95435	-222.46207	92.25689	1370.01929	-188.98351	39.67757	1278.09851	-367.77823	35.41819	1358.70789	-388.91574	1807.92151	-3357.34180	2845.91602	1034.13538			 
180	1.790	1451.87463	-491.26398	1732.75720	1309.14709	-489.24390	1710.35095	1461.06567	-353.25665	1673.11829	1319.37012	-339.29346	1651.52295	1377.39917	-289.80392	1529.45020	1364.53662	-226.43024	1255.44592	1409.26611	-420.93036	1454.07349	1399.83557	-468.52612	1281.09155	1299.17041	-238.34891	1359.86902	1566.48328	-326.95819	1495.09729	1634.57764	-269.34164	1298.66357	1636.05908	-239.70026	1160.55615	1646.23218	-223.26534	1029.22888	1622.50757	-261.97269	895.68463	1645.50647	-210.99077	905.98792	1649.29736	-218.19650	839.07623	1208.33545	-399.44601	1498.39673	1112.37036	-420.06601	1311.12903	1094.11316	-471.46448	1171.91589	1085.13867	-536.90582	1069.93994	1116.66040	-615.79315	964.60760	1075.78296	-579.79443	947.48737	1080.62610	-636.20941	902.43848	1519.13806	-448.82230	994.00531	1261.18384	-457.18484	973.37097	1429.43909	-241.92455	1034.08813	1315.40710	-241.19090	1033.13623	1592.48645	-442.70212	692.56726	1567.95020	-473.04651	494.86661	1563.68542	-440.26346	303.23193	1546.09119	-477.17236	81.26162	1486.97607	-460.85571	50.09540	1592.07068	-625.38806	59.93251	1212.23999	-350.76630	667.89783	1261.13892	-320.97888	460.27802	1262.84924	-258.17120	282.01480	1310.02734	-222.84489	92.58385	1370.13208	-189.12411	39.99566	1277.99854	-367.80331	35.39323	1359.70935	-397.34290	1807.10413	-3357.52930	2845.88916	1034.37451			 
181	1.800	1452.81287	-499.47852	1731.51160	1310.02515	-497.47876	1709.36353	1461.77271	-361.29196	1672.17737	1319.99097	-347.48291	1650.86963	1377.78796	-297.70004	1528.64673	1365.08069	-233.99904	1254.70715	1409.64648	-428.81573	1453.15173	1400.00256	-476.23846	1280.09436	1299.45239	-246.07898	1359.02039	1566.87109	-334.73792	1494.04431	1634.65613	-276.02335	1297.92261	1636.17578	-245.17523	1160.23071	1646.09058	-227.48149	1029.15149	1622.98535	-265.41101	894.95129	1645.45740	-214.31329	905.82190	1649.30334	-220.86969	838.80072	1208.74719	-407.32864	1497.65356	1112.37244	-429.22455	1310.50403	1094.43298	-480.86124	1171.61121	1085.56067	-547.93494	1070.51978	1117.23645	-627.60822	965.84741	1076.30811	-592.11072	948.42737	1081.26208	-649.07172	904.19305	1519.25903	-456.76022	993.22943	1261.18506	-464.18759	972.58807	1430.08728	-249.64088	1033.24219	1316.13733	-248.29498	1032.26379	1592.60767	-450.84149	691.63885	1567.52429	-482.84900	494.17593	1564.86011	-456.47293	301.50534	1548.60645	-501.20435	80.45112	1490.15210	-485.05252	48.39076	1592.24255	-650.97864	63.71133	1212.58154	-355.76392	667.28973	1261.40186	-324.46796	459.82947	1262.97900	-259.94318	282.05234	1310.10681	-223.29141	92.91451	1370.46460	-189.02394	40.57661	1277.67346	-368.22260	35.41757	1360.70935	-405.83203	1806.26965	-3360.31519	2845.22339	1034.07349			 
182	1.810	1453.74487	-507.64279	1730.13049	1310.99792	-505.75784	1708.39563	1462.56604	-369.37024	1671.19971	1320.68860	-355.47699	1650.28113	1378.26794	-305.66068	1527.77625	1365.79370	-241.56679	1253.92920	1410.09766	-436.71115	1452.12915	1400.23877	-483.97971	1279.10510	1299.88696	-253.93633	1358.11108	1567.33875	-342.52594	1492.92126	1635.09204	-282.72842	1297.32007	1635.88696	-251.37703	1159.55884	1646.28564	-232.40068	1028.77173	1623.54614	-269.14154	894.19672	1645.64160	-218.06335	905.61377	1649.65002	-223.68892	838.58600	1209.15759	-415.21570	1496.76123	1113.53857	-437.18286	1310.06934	1094.58154	-491.13278	1171.52246	1085.93567	-558.77893	1070.87744	1117.85999	-639.65350	967.34283	1077.00891	-603.99561	949.25745	1081.89124	-661.45282	905.67639	1519.35706	-464.83517	992.43744	1261.23755	-471.26215	971.76666	1430.88318	-257.45062	1032.33936	1316.95300	-255.53778	1031.36572	1592.89392	-459.07312	690.70990	1567.31592	-492.65091	493.44604	1566.15845	-472.35434	300.00095	1550.61597	-524.62286	79.84918	1493.15002	-508.14377	47.53632	1592.09509	-675.54028	67.59750	1212.93884	-361.02048	666.68811	1261.71130	-327.80844	459.40192	1263.41553	-261.84372	282.17557	1310.23926	-223.70203	93.35429	1370.43127	-189.34142	40.88173	1277.79260	-367.77399	35.34584	1361.85706	-414.21698	1805.37695	-3360.29492	2845.22705	1034.11377			 
183	1.820	1454.81946	-515.88043	1728.78796	1312.04163	-514.03094	1707.41907	1463.49573	-377.51239	1670.12549	1321.65076	-363.70212	1649.48364	1379.05005	-313.77313	1526.98059	1366.51855	-249.24536	1253.07397	1410.67188	-444.62469	1451.09302	1400.55383	-491.74228	1278.02832	1300.42346	-261.79227	1357.24768	1567.99512	-350.50232	1491.80371	1635.47583	-289.81216	1296.50122	1636.15247	-257.63821	1158.98315	1646.44299	-237.73335	1028.27161	1624.23926	-273.21964	893.48883	1646.04297	-222.10057	905.35730	1650.01245	-227.14427	838.21808	1209.59631	-423.12692	1495.87109	1114.11340	-445.76230	1309.17786	1095.24707	-500.34781	1171.13037	1086.67554	-568.99500	1071.03723	1118.48157	-651.10260	968.33362	1077.82727	-615.62018	949.98212	1082.66968	-673.46014	906.90131	1519.42175	-473.05472	991.59406	1261.22583	-478.39279	970.80133	1431.82141	-265.38840	1031.32813	1317.89258	-262.95770	1030.44678	1593.25159	-467.32095	689.77277	1567.34558	-502.33817	492.69409	1568.02319	-487.51154	298.90869	1552.87451	-546.84766	80.08388	1494.91418	-530.59668	46.57461	1591.59998	-698.88336	71.38109	1213.06909	-366.11777	666.04797	1261.83533	-331.63400	459.03079	1263.63623	-263.79968	282.41992	1310.39636	-224.13020	93.87444	1370.56006	-189.58800	41.65182	1277.64392	-367.82568	35.34809	1362.99597	-422.67392	1804.40771	-3360.27612	2845.20337	1034.19421			 
